<svg width="600" height="600" viewBox="0 0 600 600" fill="none" xmlns="http://www.w3.org/2000/svg">
<g transform="translate(100, 17.5)">
<path d="M0 109.366V336.996C0 349.904 12.155 359.369 24.6645 356.282L131.375 329.656V216.829C131.375 204.174 139.985 193.139 152.292 190.102L383.591 132.752C393.112 130.373 399.747 121.869 399.747 112.1V19.8733C399.747 6.96569 387.592 -2.4999 375.082 0.587803L15.0924 90.0807C6.22943 92.2573 0 100.255 0 109.366Z" fill="#FFB64D"/>
<path d="M375.488 269.137L131.426 329.676V551.991C131.426 564.291 146.873 569.707 154.571 560.141L246.645 435.974C246.898 435.62 247.303 435.417 247.708 435.316L383.54 401.503C393.214 399.074 400.051 390.418 400.051 380.446V288.372C400.051 275.565 387.997 266.1 375.538 269.187L375.488 269.137Z" fill="#FF682C"/>
</g>
</svg>
